<svg width="102" height="116" viewBox="0 0 102 116" fill="none" xmlns="http://www.w3.org/2000/svg">
<rect x="1.04688" y="9.15527e-05" width="100" height="100" fill="#FF7E47"/>
<path d="M63.2552 76.0864C62.5752 78.7511 61.4269 81.1026 59.8101 83.1412C58.2011 85.1495 56.1395 86.7197 53.6252 87.852C51.111 88.9842 48.1595 89.6179 44.7709 89.753C41.3823 89.8881 37.5684 89.4148 33.3292 88.3331C26.2135 86.5173 20.7974 83.5388 17.0809 79.3976C13.3645 75.2563 11.6005 70.162 11.7891 64.1146L25.1625 65.7373C25.1327 68.7613 26.0105 71.388 27.7959 73.6174C29.5891 75.8166 32.4085 77.4068 36.254 78.388C38.0708 78.8516 39.7255 79.1288 41.2182 79.2194C42.7411 79.3178 44.0947 79.1955 45.2787 78.8526C46.4627 78.5097 47.4548 77.9082 48.2548 77.048C49.0625 76.1576 49.6518 74.9857 50.0227 73.5323C50.4399 71.8972 50.2954 70.4412 49.5892 69.1645C48.921 67.8651 47.93 66.6931 46.6163 65.6483C45.3405 64.581 43.8635 63.6075 42.1852 62.7277C40.5146 61.8176 38.9045 60.923 37.3551 60.0439C36.0324 59.2871 34.6417 58.4807 33.183 57.6247C31.7624 56.7462 30.3952 55.7845 29.0815 54.7398C27.7678 53.695 26.5568 52.5636 25.4486 51.3455C24.348 50.0971 23.4566 48.7247 22.7741 47.2283C22.0917 45.7318 21.6524 44.1039 21.4564 42.3446C21.2983 40.5627 21.4858 38.6271 22.0189 36.5378C22.7762 33.5703 24.0649 31.174 25.8853 29.3486C27.7436 27.5007 29.9254 26.1546 32.4307 25.3104C34.9437 24.4358 37.6781 24.0209 40.6338 24.0656C43.5973 24.08 46.593 24.4735 49.6209 25.2462C56.4036 26.977 61.3587 29.6766 64.4863 33.345C67.6216 36.9832 69.0308 41.7612 68.714 47.6791L55.3879 45.6816C55.4249 42.7561 54.7581 40.3768 53.3876 38.5435C52.0171 36.7102 49.8633 35.4188 46.9261 34.6693C45.0185 34.1826 43.3786 33.9737 42.0064 34.0429C40.6722 34.0894 39.5265 34.3453 38.5692 34.8106C37.65 35.2533 36.9156 35.8561 36.3662 36.6189C35.8548 37.3592 35.4832 38.1835 35.2514 39.0919C34.8805 40.5454 34.9499 41.8531 35.4597 43.0153C35.9772 44.1471 36.7604 45.1855 37.8093 46.1304C38.8885 47.0831 40.1574 47.9874 41.6161 48.8434C43.1127 49.6768 44.6245 50.5141 46.1514 51.3553C47.6558 52.1584 49.1902 53.0337 50.7545 53.9812C52.3265 54.8983 53.8412 55.9137 55.2986 57.0274C56.7637 58.1108 58.1033 59.3073 59.3172 60.6168C60.5388 61.8961 61.5324 63.3107 62.2979 64.8606C63.0635 66.4105 63.5478 68.1144 63.751 69.9723C63.9845 71.838 63.8192 73.876 63.2552 76.0864Z" fill="black"/>
</svg>
